<svg width="34" height="28" viewBox="0 0 34 28" fill="none" xmlns="http://www.w3.org/2000/svg">
<path d="M3.15157 4.48602C5.4899 1.95102 9.02823 0.666016 13.6666 0.666016H15.3332V5.36435L13.9932 5.63268C11.7099 6.08935 10.1216 6.98768 9.27157 8.30602C8.82806 9.01623 8.57652 9.82942 8.54157 10.666H13.6666C14.1086 10.666 14.5325 10.8416 14.8451 11.1542C15.1576 11.4667 15.3332 11.8907 15.3332 12.3327V23.9993C15.3332 25.8377 13.8382 27.3327 11.9999 27.3327H1.9999C1.55787 27.3327 1.13395 27.1571 0.821389 26.8445C0.508828 26.532 0.333234 26.108 0.333234 25.666V17.3327L0.338234 12.4677C0.323234 12.2827 0.00656694 7.89935 3.15157 4.48602ZM30.3332 27.3327H20.3332C19.8912 27.3327 19.4673 27.1571 19.1547 26.8445C18.8422 26.532 18.6666 26.108 18.6666 25.666V17.3327L18.6716 12.4677C18.6566 12.2827 18.3399 7.89935 21.4849 4.48602C23.8232 1.95102 27.3616 0.666016 31.9999 0.666016H33.6666V5.36435L32.3266 5.63268C30.0432 6.08935 28.4549 6.98768 27.6049 8.30602C27.1614 9.01623 26.9098 9.82942 26.8749 10.666H31.9999C32.4419 10.666 32.8659 10.8416 33.1784 11.1542C33.491 11.4667 33.6666 11.8907 33.6666 12.3327V23.9993C33.6666 25.8377 32.1716 27.3327 30.3332 27.3327Z" fill="white"/>
</svg>
